<svg width="65" height="64" viewBox="0 0 65 64" fill="none" xmlns="http://www.w3.org/2000/svg">
<path fill-rule="evenodd" clip-rule="evenodd" d="M32.5 61.0571C48.5478 61.0571 61.5571 48.0478 61.5571 32C61.5571 15.9522 48.5478 2.9429 32.5 2.9429C16.4522 2.9429 3.4429 15.9522 3.4429 32C3.4429 48.0478 16.4522 61.0571 32.5 61.0571ZM32.5 64C50.1731 64 64.5 49.6731 64.5 32C64.5 14.3269 50.1731 0 32.5 0C14.8269 0 0.5 14.3269 0.5 32C0.5 49.6731 14.8269 64 32.5 64Z" fill="#BC00CC"/>
<path d="M36.0805 18.8812C36.2196 19.0749 36.2742 19.1567 36.3315 19.2331C38.1921 21.4702 38.645 24.0183 37.8456 26.7628C36.1596 32.5466 29.4074 32.4565 26.8484 29.5429C25.6016 28.1215 25.0341 26.4628 24.9496 24.6049C24.7968 21.1101 26.8811 16.8923 32.1465 17.0424C35.3466 17.1324 38.5468 17.0697 41.7469 17.0478C42.1179 17.0451 42.5244 16.9524 42.8491 16.7832C44.8461 15.7438 46.0029 14.0387 46.5976 11.9162C46.6249 11.8179 46.6003 11.7034 46.6003 11.5806C46.4912 11.5697 46.4148 11.5533 46.3384 11.5533C41.1576 11.5533 35.9796 11.4469 30.8015 11.5833C26.1745 11.7034 22.5952 13.8204 20.3662 17.9509C18.9285 20.6163 18.5848 23.4945 19.0158 26.4737C19.485 29.6847 20.8819 32.4074 23.4545 34.4454C25.7844 36.2869 28.4962 36.9935 31.4208 37.0781C32.3429 37.1053 33.2869 37.2008 34.1708 37.4409C35.8077 37.8856 37.1336 38.7941 37.7583 40.4664C38.6477 42.8536 37.6219 45.5599 35.2921 46.6839C32.6948 47.9416 30.0758 47.8543 27.5604 46.3893C26.3355 45.6718 25.547 44.5969 25.2006 43.211C25.1651 43.0637 25.1296 42.9191 25.0833 42.7254C23.018 42.9464 20.9883 43.1673 18.9176 43.3883C19.4141 47.2241 21.332 49.9905 24.6713 51.7583C27.7187 53.368 30.9788 53.6626 34.3372 53.1824C36.3206 52.896 38.1812 52.2412 39.8235 51.079C43.1028 48.7655 44.426 45.5108 44.3087 41.585C44.2377 39.2415 43.512 37.1681 41.7442 35.5557C41.2095 35.0674 40.6065 34.6527 40.0363 34.2026C40.0664 34.1671 40.0855 34.1289 40.1127 34.1044C44.3168 30.4977 45.2553 24.2284 43.4575 19.435C43.3074 19.0339 43.1165 18.8703 42.669 18.8812C41.3868 18.9139 40.1073 18.8921 38.8305 18.8921C37.9602 18.8812 37.0763 18.8812 36.0805 18.8812Z" fill="#BC00CC"/>
</svg>
